<svg xmlns="http://www.w3.org/2000/svg" viewBox="0 0 100 98.5"><path fill="#09F" d="M90.8 98.5c-1.4 0-2.8-.6-3.8-1.6L72.1 82c4.4-3.1 8.2-7.1 11.2-11.6l15.1 15.1c2.1 2.1 2.1 5.5 0 7.6l-3.8 3.8c-1 1.1-2.3 1.6-3.8 1.6z"/><path d="M53.2 72.3H35.4V32.4c2.5 2.3 5.8 3.5 9.2 3.6 3.1 0 6.2-1.1 8.6-3.1v39.4z"/><circle fill="#09F" cx="-11663.7" cy="6691.6" r="8.9" transform="translate(11708 -6668)"/><circle fill="none" cx="44.3" cy="44.3" r="44.3"/><path fill="#09F" d="M44.3 88.6C19.9 88.6 0 68.8 0 44.3 0 19.9 19.9 0 44.3 0s44.3 19.9 44.3 44.3c0 24.5-19.8 44.3-44.3 44.3zm0-77.9c-18.5 0-33.6 15.1-33.6 33.6s15.1 33.6 33.6 33.6 33.6-15.1 33.6-33.6-15.1-33.6-33.6-33.6z"/></svg>